<svg xmlns="http://www.w3.org/2000/svg" width="47.709" height="47.05" viewBox="0 0 47.709 47.05">
  <path id="Union_1" data-name="Union 1" d="M.927,43.882c1.8-.811,3.6-1.616,5.39-2.443q1.927-.893,3.829-1.845a3.573,3.573,0,0,0,1.218-1.067c.161.074.328.156.58.277.047-.228.085-.433.128-.625a8.883,8.883,0,0,0,.781-.635c.343-.337.671-.665,1.232-.5.047-.232.08-.4.119-.6a1.276,1.276,0,0,1,.214-.126c1.684-.635,3.366-1.253,5.042-1.889.947-.352,1.9-.7,2.834-1.083,1.194-.5,2.355-1.128,3.572-1.563,3.078-1.079,6.18-2.093,9.27-3.129.37-.127.747-.242,1.208-.388-.377-.469-.676-.872-1.009-1.25-.861-.963-1.762-1.889-2.584-2.882a8.156,8.156,0,0,1-1.689-2.4,1.841,1.841,0,0,0-.347-.459c-.086.1-.138.151-.229.258-.351-.419-.7-.834-1.122-1.341-.1.292-.142.423-.21.62-.108-.126-.191-.226-.3-.358a.7.7,0,0,0-.044.176c0,.379.01.752.01,1.129,0,.081-.033.156-.033.237-.043.942-.081,1.884-.124,2.821-.019.424-.071.837-.09,1.261-.015.343,0,.69,0,1.073a1.855,1.855,0,0,1-1.075-.574,9.377,9.377,0,0,0-.766-.6c-.894-.8-1.768-1.623-2.659-2.434-1.017-.932-2.049-1.844-3.057-2.781-.386-.358-.724-.771-1.1-1.139-.3-.293-.51-.7-.957-.811-.085-.021-.142-.177-.214-.268a2.12,2.12,0,0,0-.575-.514c.029.137.057.278.114.55-1.032-.967-1.731-2.086-2.629-3.074a.612.612,0,0,0-.038.507,23.871,23.871,0,0,1,.409,3.815,3.271,3.271,0,0,1-.309,1.386,2.52,2.52,0,0,0-.114.993c.023.715.072,1.432.119,2.278-.19-.132-.266-.186-.394-.279a5.972,5.972,0,0,0-.4,2.062l-.1-.609-.119-.015a6.364,6.364,0,0,0-.158.832.94.94,0,0,1-.357.741c-.066-.112-.118-.207-.214-.368-.043.55-.067,1.028-.129,1.5a4.974,4.974,0,0,1-.229.781c-.038,0-.075,0-.114-.01a1.351,1.351,0,0,1-.1-.282c-.013-.182,0-.363,0-.544-.037-1.508-.043-3.019-.123-4.515s-.2-2.994-.347-4.49q-.253-2.529-.575-5.065c-.1-.811-.271-1.617-.423-2.419-.028-.151-.08-.353-.185-.417a3.468,3.468,0,0,1-1.2-1.921,17.117,17.117,0,0,0-2.892-5.15c-.647-.78-1.194-1.647-1.8-2.5L6.2,1.415c1.2,1.018,2.358,2.019,3.509,3.01s2.3,1.993,3.5,2.941c-.238-.283-.471-.57-.709-.851.028-.031.062-.061.09-.1a1.673,1.673,0,0,1,.3.2c.87.952,1.726,1.92,2.606,2.862,1.051,1.134,2.117,2.256,3.182,3.372a1.617,1.617,0,0,0,.419.313,6.95,6.95,0,0,1,2.183,2.151,50.339,50.339,0,0,0,4.19,5.226c.143.141.3.277.442.418.029-.021.062-.045.1-.065-.062-.389-.142-.776-.176-1.17a34.526,34.526,0,0,0-.69-4.63c-.053-.212-.1-.432-.171-.635-.285-.847-.562-1.7-.885-2.535a11.6,11.6,0,0,0-.728-1.472.671.671,0,0,1-.08-.655c.38.348.747.665,1.09,1,.575.558,1.117,1.149,1.712,1.674a12.725,12.725,0,0,0,1.289.871,2.273,2.273,0,0,1,.913.832c-.09.081-.181.146-.256.227a.392.392,0,0,0-.015.584c.4.479.78.978,1.194,1.442.947,1.063,1.907,2.11,2.916,3.124a14.9,14.9,0,0,0-2.13-3.4,4.854,4.854,0,0,1,1.008.967c.028.03.038.071.067.1,1,1.2,1.974,2.433,3.01,3.6a18.11,18.11,0,0,0,1.879,1.743,8.111,8.111,0,0,0,.984.6,4.741,4.741,0,0,1,.937.645,11.724,11.724,0,0,0,1.284,1.25c.6.479,1.117,1.082,1.679,1.622a8.762,8.762,0,0,0,.713.585c.433.327.875.64,1.308.962a9.61,9.61,0,0,0,2.193,1.266,2.684,2.684,0,0,1,.386.225c-.574.194-1.053.356-1.531.507-1.146.353-2.29.705-3.438,1.048-1.185.357-2.378.69-3.563,1.048-1.86.564-3.715,1.139-5.574,1.7-1.6.489-3.211.963-4.814,1.447-1.041.312-2.074.655-3.115.948-.333.09-.671.422-1.037.064a2.866,2.866,0,0,0-.941.389,2.145,2.145,0,0,1-1.389.609,9.341,9.341,0,0,0-2.469.69c-1.41.532-2.808,1.094-4.212,1.648a2.545,2.545,0,0,0-.357.211c.014.03.028.066.043.1.916-.307,1.827-.609,2.735-.923.889-.3,1.759-.646,2.659-.913.013.051.028.1.042.146q-4.935,1.819-9.879,3.634c-.015-.036-.029-.076-.044-.112.957-.438,1.915-.871,2.872-1.309-.018-.06-.037-.112-.057-.162a6.171,6.171,0,0,0-1.213.429c-.421.121-.812.286-1.244.432s-.869.273-1.3.425-.862.327-1.289.489c-.409.161-.8.307-1.227.479s-.846.352-1.27.529l-1.27.529c-.409.166-.813.335-1.227.489A4.691,4.691,0,0,1,0,44.734,2.011,2.011,0,0,1,.927,43.882ZM27.3,34.8h0a3.612,3.612,0,0,0,1.595-.468l-.008,0a3.92,3.92,0,0,1-1.578.457Zm-.077-2.848a2.39,2.39,0,0,0,1.617-.417h0a2.538,2.538,0,0,1-1.617.415ZM4.794.083,4.875,0c.367.306.736.6,1.092.919.145.128.145.2.086.577A4.881,4.881,0,0,1,4.794.083Z" transform="translate(2.341) rotate(3)" fill="#fff"/>
</svg>
