<svg id="music-store" xmlns="http://www.w3.org/2000/svg" width="41.445" height="32.864" viewBox="0 0 41.445 32.864">
  <g id="Group_4" data-name="Group 4">
    <path id="Path_10" data-name="Path 10" d="M1.7,330.721a1.261,1.261,0,0,0-1.067.573H.622v-1.845H0v5.076H.587v-.46H.6a1.1,1.1,0,0,0,1.018.565c1.258,0,1.626-1.181,1.626-2.064C3.245,331.527,2.686,330.721,1.7,330.721Zm-.1,3.373c-.4,0-1.011-.262-1.011-1.245,0-.6.1-1.569,1-1.569.961,0,1.011.912,1.011,1.386C2.6,333.477,2.284,334.093,1.6,334.093Z" transform="translate(0 -303.123)" fill="#fff"/>
    <path id="Path_11" data-name="Path 11" d="M39.9,346.3v-2.128c0-.947-1.075-1.032-1.371-1.032-.912,0-1.5.346-1.527,1.23h.573a.735.735,0,0,1,.848-.714c.587,0,.869.212.869.6,0,.367-.176.424-.325.439l-1.025.127a1.112,1.112,0,0,0-1.124,1.16,1.065,1.065,0,0,0,1.159,1.067,1.68,1.68,0,0,0,1.336-.6c.021.283.106.565.658.565a1.147,1.147,0,0,0,.339-.07v-.453a1.178,1.178,0,0,1-.205.028C39.98,346.523,39.9,346.459,39.9,346.3Zm-.622-.636c0,.5-.565.869-1.145.869a.584.584,0,0,1-.672-.643c0-.466.488-.558.792-.6.771-.1.926-.155,1.025-.233v.608Z" transform="translate(-33.398 -315.546)" fill="#fff"/>
    <path id="Path_12" data-name="Path 12" d="M79.237,343.143a1.342,1.342,0,0,0-1.117.629h-.014v-.523h-.587v3.7h.622v-2.015c0-1,.622-1.23.976-1.23.608,0,.792.325.792.969v2.276h.622V344.43A1.168,1.168,0,0,0,79.237,343.143Z" transform="translate(-70.315 -315.545)" fill="#fff"/>
    <path id="Path_13" data-name="Path 13" d="M116.389,331.353h-.014a1.251,1.251,0,0,0-1.1-.628c-.982,0-1.541.806-1.541,1.845,0,.883.367,2.064,1.626,2.064a1.113,1.113,0,0,0,1.053-.616h.014v.51h.586v-5.076h-.622v1.9h0Zm-1.018,2.744c-.679,0-1-.616-1-1.428,0-.474.05-1.386,1.011-1.386.9,0,1,.969,1,1.569C116.382,333.835,115.767,334.1,115.371,334.1Z" transform="translate(-103.162 -303.127)" fill="#fff"/>
    <path id="Path_14" data-name="Path 14" d="M156.568,343.7a.824.824,0,0,1,.877.792h.6a1.334,1.334,0,0,0-1.386-1.35c-1.223,0-1.774.912-1.774,2.057a1.661,1.661,0,0,0,1.654,1.852,1.462,1.462,0,0,0,1.506-1.414h-.6a.942.942,0,0,1-.883.877c-.855,0-1.011-.785-1.011-1.421C155.55,344.436,155.8,343.7,156.568,343.7Z" transform="translate(-140.493 -315.545)" fill="#fff"/>
    <path id="Path_15" data-name="Path 15" d="M192.655,346.3v-2.128c0-.947-1.074-1.032-1.371-1.032-.912,0-1.5.346-1.527,1.23h.573a.736.736,0,0,1,.848-.714c.587,0,.87.212.87.6,0,.367-.177.424-.325.439l-1.025.127a1.111,1.111,0,0,0-1.124,1.16,1.065,1.065,0,0,0,1.159,1.067,1.68,1.68,0,0,0,1.336-.6c.021.283.106.565.658.565a1.145,1.145,0,0,0,.339-.07v-.453a1.176,1.176,0,0,1-.2.028C192.733,346.523,192.655,346.459,192.655,346.3Zm-.622-.636c0,.5-.565.869-1.145.869a.584.584,0,0,1-.672-.643c0-.466.488-.558.792-.6.771-.1.926-.155,1.025-.233Z" transform="translate(-171.956 -315.546)" fill="#fff"/>
    <path id="Path_16" data-name="Path 16" d="M234.108,343.143a1.353,1.353,0,0,0-1.131.6,1,1,0,0,0-.982-.6,1.3,1.3,0,0,0-1.117.629h-.014v-.523h-.586v3.7h.622v-2.015c0-1,.622-1.23.975-1.23.46,0,.58.375.58.686v2.559h.622v-2.255a.939.939,0,0,1,.87-.99c.53,0,.685.347.685.855v2.39h.622v-2.559A1.113,1.113,0,0,0,234.108,343.143Z" transform="translate(-208.878 -315.545)" fill="#fff"/>
    <path id="Path_17" data-name="Path 17" d="M291.008,343.143a1.25,1.25,0,0,0-1.1.629h-.014v-.523H289.3v5.16h.622v-1.852h.014a1.112,1.112,0,0,0,.982.495c1.258,0,1.626-1.181,1.626-2.064C292.55,343.949,291.991,343.143,291.008,343.143Zm-.1,3.373c-.4,0-1.011-.262-1.011-1.245,0-.6.1-1.569,1-1.569.962,0,1.011.912,1.011,1.386C291.906,345.9,291.588,346.516,290.91,346.516Z" transform="translate(-262.42 -315.545)" fill="#fff"/>
    <path id="Path_18" data-name="Path 18" d="M113.14,204.724c2.375,0,3.488-2.153,3.488-5,0-1.657-.173-4.849-3.537-4.849-3.142,0-3.488,3.39-3.488,5.492C109.6,203.808,111.755,204.724,113.14,204.724Z" transform="translate(-99.418 -181.058)" fill="#fff"/>
    <path id="Path_19" data-name="Path 19" d="M121.3,46.167H91.459l-3.426,7.411h2.1v6.457h.05a4.411,4.411,0,0,1,3.735-2c3.439,0,5.393,2.821,5.393,6.457,0,2.489-.836,5.65-3.459,6.789h8.334c-2.22-.913-3.48-3.189-3.48-6.047,0-4.008,1.929-7.2,6.209-7.2,3.39,0,4.676,2.474,4.849,4.725h-2.1a2.881,2.881,0,0,0-3.068-2.77c-2.7,0-3.562,2.572-3.562,4.873,0,2.227.545,4.973,3.538,4.973,1.459,0,2.72-1.089,3.092-3.068h2.1c0,.008,0,.017,0,.026Z" transform="translate(-79.852 -46.167)" fill="#fff"/>
    <path id="Path_20" data-name="Path 20" d="M312.108,307.9l.4-.869a4.5,4.5,0,0,1-1.321.869Z" transform="translate(-282.27 -282.791)" fill="#fff"/>
    <path id="Path_21" data-name="Path 21" d="M8.107,127.649,0,145.188H8.107Z" transform="translate(0 -120.077)" fill="#fff"/>
    <path id="Path_22" data-name="Path 22" d="M109.337,301.306h1.64a4.015,4.015,0,0,1-1.591-1.544h-.049Z" transform="translate(-99.176 -276.196)" fill="#fff"/>
  </g>
</svg>
