<svg id="Layer_2_1_" xmlns="http://www.w3.org/2000/svg" width="32.872" height="32.872" viewBox="0 0 32.872 32.872">
  <g id="Design">
    <path id="Subtraction_2" data-name="Subtraction 2" d="M16.436,32.872a16.44,16.44,0,0,1-6.4-31.58,16.44,16.44,0,0,1,12.8,30.289A16.334,16.334,0,0,1,16.436,32.872ZM13.731,16.518V26.6a.236.236,0,0,0,.246.246h3.73a.263.263,0,0,0,.246-.246V16.354h2.705a.263.263,0,0,0,.246-.246l.246-3.074c0-.177-.094-.287-.246-.287H17.912V10.575a.928.928,0,0,1,.943-.943h2.09a.263.263,0,0,0,.246-.246V6.312a.236.236,0,0,0-.246-.246H17.42a3.775,3.775,0,0,0-3.771,3.771v2.992H11.763a.236.236,0,0,0-.246.246v3.074a.236.236,0,0,0,.246.246h1.885v.123Z" fill="#fff"/>
  </g>
</svg>
