<svg xmlns="http://www.w3.org/2000/svg" width="40.322" height="22.68" viewBox="0 0 40.322 22.68">
  <path id="Union_29" data-name="Union 29" d="M-143.589-3505.177a1.26,1.26,0,0,1-1.26-1.26v-20.16a1.26,1.26,0,0,1,1.26-1.26,11.359,11.359,0,0,1,11.287,10.218,6.414,6.414,0,0,1,1.313-.138,6.307,6.307,0,0,1,6.3,6.3,6.3,6.3,0,0,1-6.3,6.3Zm-6.3-1.26v-17.64a1.26,1.26,0,0,1,1.26-1.26,1.26,1.26,0,0,1,1.26,1.26v17.64a1.26,1.26,0,0,1-1.26,1.26A1.26,1.26,0,0,1-149.889-3506.437Zm-5.04,0v-12.6a1.26,1.26,0,0,1,1.26-1.26,1.26,1.26,0,0,1,1.26,1.26v12.6a1.26,1.26,0,0,1-1.26,1.26A1.26,1.26,0,0,1-154.929-3506.437Zm-5.041,0v-12.6a1.261,1.261,0,0,1,1.261-1.26,1.261,1.261,0,0,1,1.26,1.26v12.6a1.261,1.261,0,0,1-1.26,1.26A1.261,1.261,0,0,1-159.97-3506.437Zm-5.04,0V-3514a1.261,1.261,0,0,1,1.26-1.26,1.26,1.26,0,0,1,1.26,1.26v7.56a1.26,1.26,0,0,1-1.26,1.26A1.261,1.261,0,0,1-165.01-3506.437Z" transform="translate(165.01 3527.857)" fill="#fff"/>
</svg>
