<svg xmlns="http://www.w3.org/2000/svg" width="32.734" height="32.734" viewBox="0 0 32.734 32.734">
  <path id="spotify-sketch" d="M16.367,32.734A16.367,16.367,0,1,0,0,16.367,16.373,16.373,0,0,0,16.367,32.734Zm6.645-8.653h0c-1.1,0-4.577-3.857-14.348-1.855a4.213,4.213,0,0,1-.786.172,1.084,1.084,0,0,1-.145-2.152c5.405-1.193,10.929-1.088,15.64,1.729a1.1,1.1,0,0,1-.361,2.1Zm1.777-4.328c-.154-.041-.109.094-.814-.277A21.387,21.387,0,0,0,8.229,17.536a2.711,2.711,0,0,1-.786.172,1.342,1.342,0,0,1-.256-2.646,23.909,23.909,0,0,1,18.136,2.1,1.376,1.376,0,0,1,.746,1.3A1.279,1.279,0,0,1,24.789,19.754ZM6.2,9.545c6.169-1.806,15.505-1.236,21.31,2.152a1.6,1.6,0,0,1-.679,3.028h0a1.519,1.519,0,0,1-.852-.258c-4.7-2.8-13.1-3.477-18.536-1.959a3.177,3.177,0,0,1-.852.17A1.523,1.523,0,0,1,5.055,11.12,1.559,1.559,0,0,1,6.2,9.545Z" fill="#fff"/>
</svg>
