<svg id="twitter_1_" data-name="twitter(1)" xmlns="http://www.w3.org/2000/svg" width="34.805" height="28.279" viewBox="0 0 34.805 28.279">
  <g id="Group_5" data-name="Group 5" transform="translate(0)">
    <path id="Path_38" data-name="Path 38" d="M34.8,51.348a14.877,14.877,0,0,1-4.111,1.127,7.1,7.1,0,0,0,3.139-3.944,14.26,14.26,0,0,1-4.525,1.727,7.135,7.135,0,0,0-12.343,4.879,7.347,7.347,0,0,0,.165,1.627A20.2,20.2,0,0,1,2.423,49.3a7.137,7.137,0,0,0,2.193,9.537,7.047,7.047,0,0,1-3.224-.879v.078a7.168,7.168,0,0,0,5.717,7.011,7.122,7.122,0,0,1-1.871.235,6.309,6.309,0,0,1-1.351-.122,7.2,7.2,0,0,0,6.667,4.971,14.337,14.337,0,0,1-8.847,3.043A13.363,13.363,0,0,1,0,73.077a20.088,20.088,0,0,0,10.946,3.2c13.13,0,20.309-10.877,20.309-20.3,0-.315-.011-.62-.026-.922A14.234,14.234,0,0,0,34.8,51.348Z" transform="translate(0 -48)" fill="#fff"/>
  </g>
</svg>
